<?xml version="1.0" encoding="UTF-8" standalone="no"?>
<!-- Created with Inkscape (http://www.inkscape.org/) -->

<svg
   version="1.1"
   id="svg1"
   width="626"
   height="626"
   viewBox="0 0 626 626"
   sodipodi:docname="paint-texture 5.svg"
   inkscape:version="1.4 (86a8ad7, 2024-10-11)"
   xml:space="preserve"
   xmlns:inkscape="http://www.inkscape.org/namespaces/inkscape"
   xmlns:sodipodi="http://sodipodi.sourceforge.net/DTD/sodipodi-0.dtd"
   xmlns="http://www.w3.org/2000/svg"
   xmlns:svg="http://www.w3.org/2000/svg"><defs
     id="defs1" /><sodipodi:namedview
     id="namedview1"
     pagecolor="#ffffff"
     bordercolor="#000000"
     borderopacity="0.25"
     inkscape:showpageshadow="2"
     inkscape:pageopacity="0.0"
     inkscape:pagecheckerboard="0"
     inkscape:deskcolor="#d1d1d1"
     inkscape:zoom="0.085363419"
     inkscape:cx="-2395.6398"
     inkscape:cy="1868.4819"
     inkscape:window-width="1920"
     inkscape:window-height="1057"
     inkscape:window-x="-8"
     inkscape:window-y="-8"
     inkscape:window-maximized="1"
     inkscape:current-layer="g1" /><g
     inkscape:groupmode="layer"
     inkscape:label="Image"
     id="g1"><path
       id="path740"
       style="fill:#fef501;fill-opacity:1;stroke-width:1.58507"
       d="m 314.30078,614.03274 c 0,-4.8851 2.067,-8.8819 4.5934,-8.8819 2.5263,0 4.5931,2.5831 4.5931,5.7402 0,3.1571 -2.0668,7.1539 -4.5931,8.882 -2.5264,1.7278 -4.5934,-0.8551 -4.5934,-5.7403 z m -23.8503,-45.3661 c -6.6207,-22.2011 -7.9132,-23.3782 -15.0709,-13.7252 -4.3062,5.8072 -6.2589,7.1272 -4.3393,2.9332 2.0824,-4.5497 -0.1066,-7.625 -5.4285,-7.625 -4.9052,0 -7.3605,-2.79 -5.4564,-6.1997 1.9043,-3.40985 5.7712,-4.62031 8.5932,-2.69004 2.8223,1.93024 5.1312,0.30881 5.1312,-3.60314 0,-3.91215 -3.4875,-5.63188 -7.7502,-3.8216 -4.2624,1.8103 -12.088,-2.01359 -17.39,-8.49759 -10.6989,-13.08355 -29.949,-15.48259 -39.4916,-4.92175 -4.5989,5.08964 -5.776,2.54156 -4.5477,-9.84384 0.9118,-9.19099 5.0682,-19.06832 9.2368,-21.94952 4.9841,-3.44494 0.7988,-4.96985 -12.2249,-4.4542 -10.8919,0.43143 -23.057,-1.44069 -27.0333,-4.16054 -4.7883,-3.27513 -5.9016,-2.56675 -3.2966,2.09781 2.1629,3.87337 1.5714,7.04261 -1.3147,7.04261 -2.8863,0 -6.7634,-4.37175 -8.6161,-9.71472 -2.2542,-6.50144 0.3279,-10.78442 7.8067,-12.9488 10.5229,-3.04558 10.6082,-3.69298 1.4616,-11.09499 -5.3426,-4.3233 -12.2213,-6.29128 -15.28632,-4.37352 -3.06502,1.91794 -3.7998,1.31368 -1.63271,-1.34309 2.16691,-2.65642 1.37913,-10.12573 -1.75099,-16.59844 -6.27475,-12.97576 -27.96231,-13.11915 -30.28173,-0.2003 -0.76805,4.27785 -0.1353,4.96402 1.40557,1.52507 3.60831,-8.05206 23.93121,-8.18155 23.93121,-0.15151 0,3.35511 -2.86494,6.10014 -6.36626,6.10014 -3.80601,0 -2.69286,4.49242 2.76783,11.17039 5.02389,6.14346 7.47527,13.00623 5.4478,15.25041 -6.85243,7.58328 -12.09822,4.14379 -13.86798,-9.09321 -1.64131,-12.27408 -7.36513,-15.46569 -33.59093,-18.72935 -5.379826,-0.66944 -8.665946,-4.43482 -7.302236,-8.36741 1.52351,-4.39378 -1.37183,-6.03583 -7.51013,-4.25918 -5.49429,1.59009 -11.91659,-0.55969 -14.27167,-4.7773 -3.0421,-5.44724 -1.54294,-6.50478 5.17607,-3.65123 6.07482,2.57979 8.13652,1.64981 5.7633,-2.59987 -2.03226,-3.63908 -10.81281,-5.46047 -19.51252,-4.04726 -11.36056,1.84518 -16.64805,-0.32591 -18.76421,-7.70448 -4.22131,-14.71945 2.47653,-30.28626 13.05123,-30.33312 6.61156,-0.03 5.33637,-2.91116 -4.72369,-10.67536 -7.57891,-5.84945 -14.39996,-14.0664 -15.15782,-18.2604 -1.62238,-8.97676 5.2337,-10.02338 12.67746,-1.93555 3.2492,3.53021 9.29678,2.3728 15.9359,-3.04997 8.95279,-7.31305 9.23071,-8.73966 1.70307,-8.73966 -4.94782,0 -10.43317,-2.57343 -12.18973,-5.71873 -1.81037,-3.24217 2.98845,-4.47815 11.08152,-2.85389 11.94952,2.39797 13.1168,1.49248 7.16502,-5.55877 -3.91043,-4.63301 -12.14403,-7.43584 -18.29669,-6.22874 -6.15265,1.20727 -8.08622,0.56321 -4.29661,-1.431 3.7893,-1.99456 6.88982,-6.30448 6.88982,-9.57784 0,-3.27371 -2.19939,-4.44769 -4.88748,-2.60903 -2.68792,1.83865 -8.2688,-1.43066 -12.40191,-7.26514 -6.63784,-9.37101 -6.49092,-9.72492 1.2607,-3.03587 10.13264,8.74369 16.64281,4.34709 12.26376,-8.28231 -2.44422,-7.0495 -0.24833,-7.50753 11.76249,-2.45382 18.26884,7.68704 19.56217,7.6946 19.56217,0.11279 0,-3.35491 -3.80776,-6.10011 -8.46172,-6.10011 -6.75386,0 -7.27105,-2.46264 -2.56218,-12.20028 3.24508,-6.71019 3.95246,-12.2975 1.57192,-12.41641 -2.38022,-0.11801 1.87323,-4.42602 9.45198,-9.57169 7.57891,-5.1453 9.69489,-7.98792 4.70188,-6.31645 -6.32328,2.11665 -9.8547,-1.4576 -11.63753,-11.77888 -2.05327,-11.88739 -0.25788,-14.83642 9.07808,-14.91128 9.21686,-0.074 9.97249,-1.25908 3.63264,-5.69759 -4.40245,-3.0824 -9.95483,-4.27029 -12.33871,-2.63987 -2.38357,1.63042 -2.85681,-1.2957 -1.05138,-6.50268 4.67814,-13.49159 9.25793,-11.81571 19.97157,7.3083 6.982446,12.46363 9.435596,14.01636 9.544786,6.04058 0.0796,-5.90441 4.98028,-15.31525 10.88812,-20.91368 5.90782,-5.59824 9.41458,-12.5549 7.79284,-15.45883 -1.62173,-2.90411 1.34333,-12.7085 6.58928,-21.78744 l 9.53778,-16.50719 -15.9526,15.15897 c -26.7113,25.38197 -27.592036,26.52722 -17.33079,22.53105 11.61303,-4.52238 13.109,5.28502 1.55439,10.19215 -4.45021,1.88991 -9.66194,0.62397 -11.581496,-2.8134 -1.91955,-3.43719 -7.31051,-4.62701 -11.97992,-2.64409 -7.01794,2.98057 -7.29079,2.00637 -1.57397,-5.61707 3.80393,-5.07256 8.96298,-7.82269 11.46481,-6.11141 2.501676,1.7111 6.784436,-1.30998 9.516916,-6.71391 2.73235,-5.4039 7.22554,-9.7591 9.98461,-9.67859 2.75908,0.0793 4.40405,-3.23037 3.65527,-7.35797 -0.847,-4.67 6.43615,-8.08588 19.28107,-9.04335 16.49636,-1.22948 19.26055,-0.0176 13.76307,6.07475 -3.78356,4.18714 -6.87899,10.41994 -6.87899,13.8506 0,3.43051 3.78834,0.25157 8.41874,-7.06464 4.63023,-7.31622 11.45133,-12.49446 15.15783,-11.50739 3.7064,0.98723 5.1422,0.74059 3.1903,-0.54789 -1.9519,-1.28865 -2.3568,-8.38765 -0.8999,-15.77557 1.9596,-9.936684 1.253,-11.249844 -2.7143,-5.04507 -7.3802,11.54211 -33.37811,14.2963 -31.93084,3.38295 0.61046,-4.60219 3.23263,-10.505904 5.82759,-13.119154 2.59481,-2.61362 3.03957,-1.51011 0.98836,2.4517 -2.05136,3.962194 -1.20881,8.927964 1.87229,11.035464 3.08092,2.10732 5.60172,0.76244 5.60172,-2.9885 0,-3.7513 2.30907,-5.240984 5.13118,-3.31071 2.822,1.93027 6.6221,0.83962 8.4444,-2.423704 1.8224,-3.26332 7.3613,-4.21409 12.3091,-2.11294 5.3252,2.26163 7.601,1.32319 5.5779,-2.29969 -5.4084,-9.68461 14.7283,-7.16224 21.2741,2.66471 5.0807,7.627844 7.1522,7.432824 15.1578,-1.4273 8.6892,-9.61642 9.3005,-9.56306 9.7081,0.84858 0.2511,6.407194 1.6122,7.882954 3.2153,3.485644 1.5291,-4.193654 6.4405,-7.625034 10.9143,-7.625034 4.907,0 6.5905,3.02497 4.2439,7.625034 -2.907,5.69847 -1.956,5.63418 3.7625,-0.25385 6.5174,-6.710384 6.4328,-8.732414 -0.5694,-13.631974 -7.2774,-5.09175 -7.272,-5.84627 0.046,-6.56856 4.5475,-0.44852 10.1284,-0.49063 12.4019,-0.0934 2.2738,0.39743 4.1341,-3.39509 4.1341,-8.42783 0,-5.03257 4.0243,-9.15012 8.9428,-9.15012 7.2949,0 7.6876,-1.67394 2.1314,-9.08297 -3.7463,-4.99575 -9.4345,-7.2891 -12.6405,-5.09617 -3.2061,2.19293 -1.0646,-3.07641 4.7585,-11.70981 7.6361,-11.32101 11.1002,-13.2111 12.4263,-6.78032 1.3779,6.68308 3.6712,7.23308 9.1551,2.19627 5.0567,-4.64463 8.42,-4.74469 10.8888,-0.32396 1.9646,3.51788 6.2903,6.39627 9.6129,6.39627 3.3224,0 1.3158,-6.17624 -4.4593,-13.72516 l -10.5002,-13.72534 11.8223,11.04021 c 14.0929,13.16054 20.2427,40.4509 10.0873,44.76365 -11.1105,4.71863 -13.3831,25.31114 -3.7468,33.948784 7.2698,6.51641 7.9702,6.40436 4.1237,-0.660104 -3.6296,-6.66652 -1.4711,-7.84048 9.9659,-5.42101 8.0295,1.69877 14.599,0.43054 14.599,-2.81832 0,-3.2487 3.7207,-4.32666 8.2682,-2.39553 4.5472,1.93116 8.2678,1.05367 8.2678,-1.94998 0,-3.00383 -3.4765,-6.34905 -7.7256,-7.43389 -6.6054,-1.68627 -6.5958,-3.12274 0.067,-9.90621 6.435,-6.5522 8.26,-6.28688 10.4817,1.52506 1.4794,5.20239 4.3104,14.26266 6.2913,20.13412 1.9805,5.87147 3.8409,14.556494 4.1339,19.300314 0.2929,4.74383 3.6952,9.34178 7.5605,10.21786 3.8652,0.87591 4.5748,0.23026 1.5768,-1.43488 -3.4377,-1.90929 -2.9988,-7.37347 1.188,-14.7929 9.1539,-16.222164 13.7884,-14.722104 11.9447,3.86651 -0.8804,8.87599 1.6789,17.00346 5.9219,18.80546 4.1097,1.74529 6.4605,6.37742 5.2239,10.2936 -5.662,17.92938 -6.959,40.62481 -2.1329,37.32377 2.8915,-1.97781 3.8302,-6.15121 2.0861,-9.27447 -3.5791,-6.40929 10.2056,-7.86145 15.8048,-1.66461 1.9949,2.20755 1.3099,7.10341 -1.5219,10.87955 -3.1697,4.22694 -3.1838,10.30492 -0.036,15.81172 2.8117,4.92015 5.34,6.20054 5.6184,2.84562 0.2783,-3.35509 1.4196,-11.52733 2.5363,-18.16055 1.1356,-6.74683 -3.0978,-17.34768 -9.6093,-24.0614 -7.301,-7.52762 -9.2421,-12.88538 -5.208,-14.37364 3.5374,-1.30486 6.4316,-5.05087 6.4316,-8.32441 0,-3.27336 -2.3089,-4.37247 -5.1311,-2.4422 -7.7439,5.29664 -13.5244,-8.98398 -6.6955,-16.54138 4.2631,-4.71809 6.9511,-3.7113 9.4675,3.54643 1.9329,5.57445 6.3551,8.3385 9.8267,6.14223 3.4717,-2.1961 4.4735,-1.74669 2.2262,0.99886 -2.2473,2.74557 -1.3236,8.67587 2.0528,13.17835 4.737,6.31647 3.9424,8.1863 -3.4786,8.1863 -7.9242,0 -8.4095,1.6114 -2.7559,9.15027 3.774,5.03257 10.7748,9.15031 15.5572,9.15031 6.7629,0 7.2256,1.62672 2.081,7.32024 -3.6379,4.02595 -6.5763,11.57506 -6.5299,16.77519 0.061,6.66561 1.322,7.30071 4.2794,2.15205 2.6223,-4.56522 7.1071,-5.31129 11.963,-1.9898 6.6693,4.56148 6.6485,6.88917 -0.1464,16.45328 -7.2575,10.21697 -7.1079,10.44072 1.8053,2.70116 5.3453,-4.64129 9.0658,-12.83551 8.2679,-18.20949 -1.0074,-6.78404 2.9017,-9.88054 12.7885,-10.13069 7.8314,-0.19801 14.2391,2.81586 14.2391,6.69735 0,3.88979 -4.6248,5.7191 -10.3035,4.07565 -9.2582,-2.6795 -9.6393,-1.36848 -3.7568,12.91973 3.6008,8.74615 11.3179,17.5781 17.1496,19.6264 5.8315,2.04846 9.2629,5.20715 7.6253,7.01954 -1.6374,1.81241 -0.6673,8.0725 2.1564,13.91155 4.2173,8.72078 9.1796,9.7977 27.7929,6.03072 17.3552,-3.51242 23.3637,-2.5537 25.6691,4.09482 1.6553,4.77448 1.4632,10.39245 -0.4271,12.48441 -1.8903,2.092 -3.4369,0.6011 -3.4369,-3.31316 0,-3.91424 -2.4805,-7.11678 -5.5121,-7.11678 -3.0316,0 -5.512,4.11772 -5.512,9.1501 0,5.38225 5.1071,9.20612 12.402,9.28593 6.8212,0.0757 18.6027,5.73001 26.1818,12.5674 l 13.7801,12.43192 -17.7303,-9.56885 c -9.7516,-5.26281 -23.648,-10.11093 -30.8808,-10.77349 -9.6992,-0.88841 -12.4722,-4.07704 -10.565,-12.14882 1.4224,-6.01928 -0.1835,-10.94419 -3.5688,-10.94419 -3.3852,0 -6.1547,3.91619 -6.1547,8.703 0,4.78644 -4.3408,9.95818 -9.646,11.49259 -9.1865,2.65677 -9.1865,2.82342 0,3.49744 5.3052,0.38915 9.646,3.07041 9.646,5.95815 0,2.88772 8.5076,4.50335 18.9058,3.59028 29.0328,-2.54949 42.7128,12.96112 42.43,48.10765 -0.057,7.15853 2.7175,10.00522 7.6942,7.89156 4.2814,-1.8182 9.4871,-0.25649 11.5685,3.4705 2.3853,4.27135 1.256,5.04701 -3.0552,2.09832 -4.7904,-3.27671 -6.514,-0.36096 -5.7534,9.7327 1.847,24.5138 0.3736,25.06167 -16.6704,6.19878 -16.4955,-18.25565 -23.1846,-32.93952 -9.121,-20.02224 5.8875,5.40743 7.2666,3.73631 6.6948,-8.11091 -0.7764,-16.08898 -8.4881,-29.28404 -8.7652,-14.99797 -0.1211,6.20056 -1.7548,5.62625 -5.786,-2.03332 -3.0899,-5.87146 -8.1524,-10.67517 -11.2499,-10.67517 -3.0975,0 -1.5915,4.47145 3.3468,9.93668 4.9382,5.46524 7.5958,13.92494 5.9058,18.79947 -1.6904,4.87437 -3.1112,12.06919 -3.1576,15.98874 -0.052,4.29883 -2.063,3.66603 -5.0712,-1.59467 -5.7471,-10.05085 -22.4042,-14.35778 -22.4042,-5.79306 0,6.37477 22.7394,17.46606 28.3603,13.8328 1.956,-1.26435 5.028,1.94558 6.8268,7.13334 1.7988,5.18742 0.9899,7.87202 -1.7975,5.96554 -2.7874,-1.90665 -6.6261,-0.67665 -8.5301,2.73323 -1.9041,3.40989 0.3173,6.19948 4.9371,6.19948 4.6196,0 11.097,5.57868 14.3941,12.39687 5.5172,11.40893 4.7639,12.0708 -9.4519,8.3068 -21.8132,-5.77562 -23.6595,-7.57834 -19.8399,-19.37395 1.8664,-5.76382 1.5719,-8.6727 -0.6544,-6.46374 -2.2264,2.20896 -4.7787,9.07153 -5.6722,15.25042 -1.1255,7.78234 -5.6557,10.7895 -14.7443,9.78678 -11.7585,-1.29713 -12.0773,-0.76511 -3.0746,5.12557 5.5249,3.61511 15.9146,4.94254 23.0881,2.94991 7.1735,-1.99245 14.5639,-0.89916 16.4227,2.42987 1.9451,3.483 -0.2514,4.51022 -5.1741,2.41983 -4.7047,-1.99809 -8.5542,-0.59403 -8.5542,3.11992 0,3.71395 -3.7205,6.75283 -8.2678,6.75283 -4.5475,0 -8.2681,2.74502 -8.2681,6.1003 0,3.35492 2.6872,6.09995 5.9714,6.09995 3.2842,0 5.0824,2.95097 3.9961,6.55765 -1.0863,3.60666 -3.7134,6.48012 -5.8378,6.38516 -2.1244,-0.095 -10.7437,3.8038 -19.1539,8.66353 -14.609,8.44157 -15.3673,8.17962 -16.9904,-5.86899 -2.1181,-18.32893 -13.356,-23.61977 -26.703,-12.57163 -9.4665,7.83573 -9.2501,8.16727 3.0822,4.72022 9.2557,-2.58736 12.0721,-1.57404 9.3206,3.35352 -2.1689,3.88341 -1.9366,7.06287 0.5159,7.06517 2.4525,0 4.7918,6.42164 5.1988,14.26477 0.672,12.96129 -1.1691,14.04912 -20.2098,11.942 -19.5197,-2.16034 -20.8463,-1.28233 -19.4426,12.86863 1.9865,20.02877 -10.9464,24.89115 -21.5679,8.10879 -4.6302,-7.31621 -8.7287,-11.31872 -9.1076,-8.89466 -2.4747,15.83017 -1.4355,20.44804 6.0596,26.92869 7.199,6.22415 6.679,7.1395 -3.6114,6.35873 -6.6111,-0.50153 -11.5719,-2.40097 -11.0236,-4.22077 0.548,-1.81981 -1.484,-3.30877 -4.5156,-3.30877 -3.0316,0 -4.9766,1.77718 -4.3223,3.94949 0.6542,2.17214 -3.5184,2.58683 -9.2726,0.92153 -8.585,-2.48448 -9.8788,-0.55934 -7.2113,10.7298 2.2475,9.51106 1.2814,12.41037 -3.1295,9.39357 -10.1828,-6.96493 -7.3852,-22.79564 4.644,-26.27707 6.063,-1.75461 11.0238,-5.46311 11.0238,-8.24109 0,-2.77761 -12.5214,0.70838 -27.8252,7.74694 -18.3296,8.43048 -26.8531,15.60118 -24.9769,21.01267 1.8107,5.22177 -1.2234,8.21465 -8.3278,8.21465 -6.1469,0 -9.6607,-2.71349 -7.8088,-6.03001 1.9285,-3.45322 -0.2746,-4.48362 -5.1549,-2.41119 -12.3132,5.22934 -4.9083,14.4022 12.4093,15.3721 12.5356,0.7021 12.9592,1.2334 2.7355,3.4302 -8.6068,1.8496 -11.1259,5.5699 -8.7309,12.8947 1.9291,5.9 -1.5778,3.7848 -8.2153,-4.9552 -11.4588,-15.0887 -11.6689,-15.1211 -19.8217,-3.0502 -4.532,6.7102 -5.9331,13.1153 -3.1134,14.2338 6.3863,2.5329 6.8182,19.317 0.4971,19.317 -2.5464,0 -7.8885,-10.9278 -11.8713,-24.2839 z m 152.5534,-74.46204 c -1.7596,-4.86626 -3.0658,-3.42099 -3.3302,3.68541 -0.2394,6.43063 1.0634,10.03341 2.8951,8.00644 1.8314,-2.02697 2.0272,-7.28839 0.4351,-11.69185 z m -1.5771,-16.14005 c 1.5612,-2.79595 -0.7727,-5.08349 -5.1866,-5.08349 -4.4142,0 -8.0256,2.28754 -8.0256,5.08349 0,2.79593 2.3341,5.08347 5.1867,5.08347 2.8527,0 6.4641,-2.28754 8.0255,-5.08347 z m 38.916,-12.79555 c 1.7443,-3.12308 1.0638,-7.11996 -1.512,-8.8818 -2.5758,-1.76167 -4.6832,0.79345 -4.6832,5.67857 0,10.28604 1.7381,11.18467 6.1952,3.20323 z m 32.102,-23.297 c -3.0931,-9.13408 -2.343,-9.53186 5.1943,-2.75384 5.9673,5.36586 9.9694,5.84398 12.4053,1.48191 1.9779,-3.54166 -0.2674,-8.08006 -4.9896,-10.08555 -4.7219,-2.00531 -7.2132,-6.10366 -5.5359,-9.10731 1.6772,-3.00347 0.7121,-5.46082 -2.1449,-5.46082 -6.1007,0 -12.738,24.23 -8.6448,31.55942 5.0195,8.9884 7.4299,5.33398 3.7156,-5.63381 z m -10.526,-24.65932 c 1.4847,-2.65871 -2.0895,-5.23303 -7.9426,-5.72101 -5.8531,-0.48781 -10.642,1.68732 -10.642,4.83402 0,6.94413 14.8072,7.65109 18.5846,0.88699 z M 75.449184,398.49294 c 0,-2.94427 -3.61194,-8.67075 -8.02635,-12.7254 -8.82911,-8.10949 -19.78217,-3.65688 -19.09816,7.76349 0.31374,5.23833 1.21056,5.1379 3.21528,-0.36009 3.87255,-10.62144 12.88535,-9.55475 12.88535,1.52491 0,5.03274 2.48034,9.15027 5.5121,9.15027 3.03143,0 5.51178,-2.40889 5.51178,-5.35318 z m 440.956596,-21.7374 c 0,-1.47963 -2.4803,-4.38673 -5.5117,-6.46022 -3.0317,-2.07349 -5.512,-0.86287 -5.512,2.69007 0,3.55312 2.4803,6.46004 5.512,6.46004 3.0314,0 5.5117,-1.21044 5.5117,-2.68989 z M 84.726404,335.60084 c -1.75942,-4.86644 -3.06549,-3.4208 -3.33006,3.68542 -0.23925,6.43062 1.06333,10.03358 2.89503,8.00643 1.83152,-2.02699 2.02731,-7.28838 0.43503,-11.69185 z M 538.45368,305.88378 c 0,-3.1571 -2.0669,-5.74023 -4.5931,-5.74023 -2.5265,0 -4.5934,3.99706 -4.5934,8.88198 0,4.88512 2.0669,7.46825 4.5934,5.74023 2.5262,-1.72802 4.5931,-5.7249 4.5931,-8.88198 z M 83.401384,291.49217 c -11.54505,-9.34283 -16.77699,-8.31631 -10.93476,2.14554 1.9982,3.57829 7.68159,6.50584 12.62939,6.50584 7.52367,0 7.24622,-1.41602 -1.69463,-8.65138 z M 501.77208,248.02933 c -1.7952,-5.17737 -4.4461,-8.10491 -5.891,-6.50602 -1.4446,1.59907 -0.992,5.83501 1.0062,9.41331 5.4352,9.73268 8.612,7.84189 4.8848,-2.90729 z m -400.25596,-0.37224 c -1.831536,-2.02715 -6.585456,-2.24384 -10.564486,-0.48163 -4.39704,1.94734 -3.09097,3.39279 3.33022,3.6854 5.810396,0.26497 9.065966,-1.17679 7.234266,-3.20377 z m 12.51685,-11.20492 c 0,-1.47963 -2.48034,-4.38655 -5.51195,-6.4602 -3.03159,-2.07351 -5.51211,-0.86289 -5.51211,2.69023 0,3.55294 2.48052,6.46005 5.51211,6.46005 3.03161,0 5.51195,-1.21045 5.51195,-2.69008 z m 329.55691,-24.14525 c -3.909,-4.69432 -7.9758,-7.62204 -9.0374,-6.50603 -3.2694,3.4372 5.0167,15.04097 10.7406,15.04097 2.9722,0 2.2057,-3.8408 -1.7032,-8.53494 z m -52.0002,-73.31154 c 4.9858,2.11752 9.0652,2.45206 9.0652,0.74378 0,-1.70812 -7.8778,-6.14505 -17.5061,-9.85972 -9.6283,-3.71465 -15.9166,-4.99485 -13.9738,-2.84473 1.9428,2.14993 0.7782,9.7244 -2.588,16.83239 -5.9393,12.54184 -5.7946,12.60385 4.9088,2.10079 6.2832,-6.1655 14.9294,-9.16562 20.0939,-6.97251 z m -38.5371,-0.47054 c -1.7383,-5.01335 -5.6457,-7.41522 -8.6835,-5.33769 -3.3958,2.32294 -2.6427,5.7973 1.9555,9.02186 10.0364,7.03786 10.3804,6.84955 6.728,-3.68417 z m -150.8283,-22.40227 c 0,-2.79577 -2.4025,-5.08347 -5.3389,-5.08347 -2.9364,0 -3.7123,-4.8039 -1.7239,-10.67519 3.245,-9.583294 2.6018,-9.762104 -6.2896,-1.747924 -5.986,5.395464 -7.471,9.824824 -3.7536,11.196114 3.383,1.24797 5.0043,4.32225 3.6029,6.83157 -1.4013,2.50932 1.0636,4.56255 5.4775,4.56255 4.4141,0 8.0256,-2.2877 8.0256,-5.08365 z m 60.6316,-2.03331 c 0,-5.03257 -0.9748,-9.15011 -2.1663,-9.15011 -1.1915,0 -3.594,4.11754 -5.3389,9.15011 -1.7451,5.03273 -0.7703,9.15028 2.1661,9.15028 2.9366,0 5.3391,-4.11755 5.3391,-9.15028 z m 95.7761,1.30716 c 9.0598,-7.33154 8.9577,-7.84296 -1.566,-7.84296 -6.1918,0 -12.4815,3.52933 -13.9772,7.84296 -1.4958,4.31362 -0.7911,7.84312 1.5659,7.84312 2.3571,0 8.6468,-3.5295 13.9773,-7.84312 z m -76.4844,-22.657714 c -2.218,-12.74638 5.0994,-16.70962 11.0796,-6.0006 5.8717,10.51435 14.3845,-0.38757 10.6019,-13.57701 -2.3923,-8.34255 -1.5442,-11.06487 2.5708,-8.25025 3.3778,2.31026 7.6706,-0.20928 9.5394,-5.59929 4.9974,-14.41274 0.2224,-16.3393 -13.7171,-5.53392 -9.7772,7.57905 -10.9959,11.34144 -5.8824,18.16017 4.2503,5.66781 4.4507,8.60063 0.5881,8.60063 -3.2239,0 -7.6269,-3.16096 -9.7842,-7.02412 -2.7391,-4.90449 -6.0534,-3.79974 -10.9825,3.66075 -3.883,5.87693 -9.6768,8.8952 -12.8754,6.70756 -3.53,-2.41437 -4.5303,-0.27095 -2.5451,5.45412 1.7986,5.18776 5.3193,8.03039 7.8239,6.31752 2.5044,-1.71286 6.1114,-0.32468 8.0157,3.08504 5.4858,9.823774 7.8734,7.250684 5.5673,-6.0006 z m 19.2075,-57.17321 c -0.053,-4.35061 -1.7344,-4.00022 -4.5746,0.95341 -2.7534,4.80249 -8.584,6.13045 -15.0735,3.43315 -9.3915,-3.90368 -9.7251,-3.23144 -2.962,5.9687 5.8354,7.93808 9.3875,8.74546 15.158,3.44513 4.145,-3.80715 7.4986,-10.01738 7.4521,-13.80039 z m 11.1085,529.578144 c 0,-5.2306 2.5206,-7.786 5.6017,-5.6787 3.0811,2.1075 4.175,6.3871 2.4308,9.5102 -4.7253,8.4613 -8.0325,6.8835 -8.0325,-3.8315 z m -77.1675,-30.14073 c 0,-5.5919 2.6663,-9.18323 5.9252,-7.98106 3.2591,1.20216 5.9255,4.79386 5.9255,7.98106 0,3.18739 -2.6664,6.77873 -5.9255,7.98103 -3.2589,1.2022 -5.9252,-2.38931 -5.9252,-7.98103 z m -48.8765,-5.38913 c -11.6248,-7.13298 -11.9897,-8.45617 -3.345,-12.1275 5.337,-2.26673 11.0022,-2.6839 12.5892,-0.92734 1.5872,1.75656 -0.482,3.19356 -4.5982,3.19356 -4.8442,0 -3.7102,3.1592 3.2153,8.95632 13.264,11.10292 9.4703,11.53982 -7.8613,0.90496 z m 34.178,-0.44269 c 0,-4.88494 2.1074,-7.44041 4.6831,-5.67856 2.5758,1.76165 3.2562,5.75853 1.512,8.8818 -4.457,7.98141 -6.1951,7.08262 -6.1951,-3.20324 z m 141.4735,3.14175 c 0,-3.15708 2.0669,-7.15396 4.5933,-8.8818 2.5262,-1.72802 4.5933,0.85511 4.5933,5.74005 0,4.88492 -2.0671,8.8818 -4.5933,8.8818 -2.5264,0 -4.5933,-2.58296 -4.5933,-5.74005 z m 110.2391,-12.56034 c -4.9679,-3.55311 -5.6477,-5.95057 -1.7033,-6.00659 3.6107,-0.051 8.0977,2.65167 9.9712,6.00659 4.2294,7.57358 2.3213,7.57358 -8.2679,0 z m -314.1816,-6.10014 c 0,-3.35509 2.4803,-6.10013 5.5121,-6.10013 3.0314,0 5.5119,2.74504 5.5119,6.10013 0,3.35511 -2.4805,6.10014 -5.5119,6.10014 -3.0318,0 -5.5121,-2.74503 -5.5121,-6.10014 z m 305.9693,-24.50006 c 1.9042,-3.4097 5.7712,-4.62032 8.5932,-2.69006 7.6454,5.22916 6.2198,8.88973 -3.462,8.88973 -4.7262,0 -7.0353,-2.78995 -5.1312,-6.19967 z m 45.7625,-4.06769 c 3.979,-1.76219 8.7331,-1.54533 10.5646,0.48165 1.8315,2.02697 -1.4238,3.4689 -7.2344,3.20394 -6.4211,-0.29262 -7.7273,-1.73823 -3.3302,-3.68559 z m -390.31546,-8.38448 c 0,-4.16847 -4.61657,-5.83572 -11.0239,-3.9812 -7.16471,2.07349 -11.023886,0.18709 -11.023886,-5.38859 0,-4.71863 -2.79042,-7.89298 -6.20103,-7.05426 -3.41061,0.83873 -7.31992,-2.59264 -8.68743,-7.62503 -1.97322,-7.26089 -1.41926,-7.46823 2.68314,-1.00414 2.84344,4.48045 6.7553,7.90495 8.69301,7.61023 1.93786,-0.29491 11.492976,3.06302 21.233886,7.46191 11.63737,5.25521 15.416,9.56744 11.01848,12.57532 -3.79885,2.59827 -6.69227,1.47662 -6.69227,-2.59424 z m 429.93276,-11.4889 c 0,-3.1571 2.452,-7.41716 5.4488,-9.46703 3.1245,-2.13709 4.0485,0.31146 2.1662,5.74022 -3.6643,10.56789 -7.615,12.50151 -7.615,3.72681 z m 5.5119,-27.4505 c 0,-4.83472 2.2205,-10.30911 4.9343,-12.16538 5.6743,-3.88096 12.5158,11.81004 7.5472,17.30892 -5.9145,6.54566 -12.4815,3.83938 -12.4815,-5.14354 z m 35.8547,-21.66237 c -1.8588,-3.32831 -0.995,-10.76766 1.9198,-16.53169 4.3485,-8.59957 5.1435,-7.51456 4.4323,6.04782 -0.9625,18.34726 -1.4821,19.20484 -6.3521,10.48387 z M -1.283186,375.89074 c 0.26441,-7.10622 1.57064003,-8.55167 3.33022,-3.68542 1.59229,4.40364 1.39634,9.66487 -0.4352,11.69185 -1.83152997,2.02697 -3.13442,-1.57581 -2.89502,-8.00643 z m 20.57919,-31.10931 c 3.97905,-1.76202 8.73298,-1.54552 10.5645,0.48146 1.8317,2.02716 -1.42387,3.4689 -7.23428,3.20396 -6.42118,-0.29262 -7.72726,-1.73825 -3.33022,-3.68542 z M 601.84128,324.54778 c 1.8735,-3.35493 7.6008,-6.05784 12.7273,-6.00659 8.0325,0.0793 8.1778,0.9106 1.0526,6.00659 -10.7944,7.72033 -18.0913,7.72033 -13.7799,0 z M 18.955674,303.34044 c 2.0052,-11.60798 4.50211,-14.37133 8.74396,-9.67684 4.24184,4.69451 3.44037,9.33421 -2.80652,16.24788 -7.98386,8.83565 -8.49993,8.26452 -5.93744,-6.57104 z m 588.751906,-1.40492 c -2.9913,-8.69401 -2.3582,-9.39463 3.0855,-3.41481 3.7671,4.1378 5.4606,9.06009 3.7635,10.93836 -1.697,1.87812 -4.7791,-1.50762 -6.849,-7.52355 z M 23.914794,243.21347 c 1.0587,-10.06478 3.5319,-19.90122 5.4957,-21.85881 1.96382,-1.95756 2.19702,2.61452 0.5183,10.16008 -1.67871,7.54558 -0.80482,15.25659 1.94216,17.13524 7.48547,5.11993 6.01448,12.86299 -2.44358,12.86299 -5.01753,0 -6.81134,-5.95479 -5.51258,-18.2995 z m 485.324086,-5.93525 c -1.3019,-4.0055 -0.2098,-11.93144 2.4274,-17.61335 3.8122,-8.21466 2.6034,-9.86393 -5.9014,-8.05117 -5.8827,1.25378 -13.9564,-2.17319 -17.9413,-7.61553 -4.5217,-6.17552 -4.7985,-8.2712 -0.7363,-5.57462 3.5799,2.37633 8.067,1.53072 9.9713,-1.87917 1.9041,-3.40988 7.6563,-6.00676 12.7827,-5.77088 7.5982,0.34952 7.2835,1.39754 -1.7034,5.67134 -12.1826,5.79378 -11.655,6.35664 8.2679,8.82208 7.5791,0.93792 15.8744,-1.3496 18.4338,-5.08328 2.857,-4.1674 3.4559,-2.66664 1.551,3.88642 -1.7065,5.87146 -0.5416,10.67517 2.5888,10.67517 3.1303,0 4.9127,-8.64925 3.9609,-19.22068 -1.1768,-13.07141 0.9147,-20.05099 6.5374,-21.81496 7.175,-2.25122 7.204,-1.77576 0.2192,3.59803 -6.9012,5.30936 -6.5084,8.13419 2.7559,19.81335 5.9428,7.49185 7.7043,11.61504 3.9148,9.1628 -9.4643,-6.1248 -8.6407,2.9804 1.755,19.40655 4.755,7.5128 11.3391,11.81727 14.6317,9.56515 3.5794,-2.44853 4.4014,-1.25642 2.0443,2.96436 -2.5164,4.506 -7.31,5.13332 -13.2536,1.73471 -5.1213,-2.92841 -13.6521,-4.55127 -18.9574,-3.60631 -5.305,0.94495 -9.6458,-1.99455 -9.6458,-6.53244 0,-4.53771 -2.8712,-10.21416 -6.3802,-12.61425 -4.3437,-2.97105 -5.4179,-0.29104 -3.3652,8.39628 3.2121,13.59357 -9.7968,24.47998 -13.9575,11.6804 z M 39.660464,227.01545 c -1.93103,-3.45781 0.28143,-4.48045 5.18674,-2.39729 9.54909,4.05536 11.29609,8.42765 3.36762,8.42765 -2.85266,0 -6.70214,-2.71368 -8.55436,-6.03036 z m 16.497,-6.17008 c -1.87355,-3.35492 0.31391,-6.10014 4.86138,-6.10014 4.54731,0 9.80074,2.74522 11.67446,6.10014 1.87356,3.35528 -0.31407,6.10031 -4.86137,6.10031 -4.54732,0 -9.80091,-2.74503 -11.67447,-6.10031 z M 524.67378,184.24476 c 1.8738,-3.35531 -1.5542,-6.10033 -7.6174,-6.10033 -6.0631,0 -12.1736,-2.05888 -13.5787,-4.57506 -1.4052,-2.51636 4.1682,-4.57505 12.3854,-4.57505 10.2775,0 15.1672,3.33165 15.6671,10.67517 0.3995,5.87134 -1.7461,10.67524 -4.7683,10.67524 -3.0219,0 -3.9617,-2.74505 -2.0881,-6.09997 z m -35.3924,-22.51574 c -0.6289,-10.49743 9.1255,-15.54039 13.8154,-7.14215 2.3773,4.25706 1.608,5.51401 -1.9043,3.11163 -3.241,-2.21689 -7.1491,-0.58223 -8.6843,3.63256 -1.9983,5.48478 -2.9155,5.59804 -3.2268,0.39796 z m -18.4102,-10.4261 c -8.5951,-7.21931 -8.7528,-9.02961 -1.378,-15.80339 4.5811,-4.20758 8.5357,-6.62776 8.7884,-5.3782 0.8322,4.11596 3.2202,29.72693 2.7534,29.52875 -0.2512,-0.10747 -4.8249,-3.86301 -10.1638,-8.34716 z m 56.5585,-4.01923 c 0,-3.55313 2.4804,-4.76374 5.5121,-2.6899 3.0315,2.07348 5.5119,4.98059 5.5119,6.45987 0,1.47962 -2.4804,2.69024 -5.5119,2.69024 -3.0317,0 -5.5121,-2.90711 -5.5121,-6.46021 z m -79.2239,-20.77256 c 1.2115,-3.47487 10.2311,-6.6561 20.0435,-7.06939 9.8126,-0.41312 13.5002,0.47441 8.1949,1.97236 -5.3053,1.49812 -9.646,4.67916 -9.646,7.06939 0,2.39007 -4.679,4.34553 -10.3976,4.34553 -5.7187,0 -9.4063,-2.84299 -8.1948,-6.31789 z m 24.1044,-21.56828 c 0,-3.35527 2.6268,-6.100304 5.8373,-6.100304 3.2105,0 4.3042,2.745034 2.4306,6.100304 -1.8735,3.35493 -4.5003,6.09996 -5.837,6.09996 -1.337,0 -2.4309,-2.74503 -2.4309,-6.09996 z M 209.37138,91.611586 c 1.7915,-5.65478 1.4332,-11.14485 -0.7964,-12.20044 -2.2297,-1.05559 0.39,-6.72305 5.8215,-12.59435 5.4316,-5.87146 9.8756,-8.01629 9.8756,-4.76654 0,3.24975 3.7207,4.3286 8.268,2.39728 5.7899,-2.45876 8.268,0.4716 8.268,9.77762 0,12.65582 -0.4594,12.78019 -9.646,2.61326 -9.1867,-10.16732 -9.7371,-10.11534 -11.5589,1.08925 -1.0522,6.47059 -4.5177,14.50979 -7.7012,17.86472 -3.9712,4.18536 -4.7657,2.87293 -2.5306,-4.1808 z m 196.8798,-0.0353 c -0.046,-5.67327 2.396,-12.01176 5.4276,-14.08525 6.9759,-4.77146 6.9759,3.30384 0,15.25025 -4.6048,7.885584 -5.3549,7.724574 -5.4276,-1.165 z m 41.6679,-4.19647 c -1.7078,-3.05807 0.6009,-7.1344 5.1311,-9.05813 4.5299,-1.92393 8.2362,-1.001 8.2362,2.05092 0,8.26911 -9.7955,13.40367 -13.3673,7.00721 z m -120.6573,-5.96184 c -9.4587,-4.12724 -9.3834,-4.98904 1.3779,-15.76711 11.2319,-11.24931 11.3836,-11.18536 11.3836,4.79439 0,8.90788 -0.6202,16.00299 -1.378,15.76711 -0.7579,-0.23571 -5.8805,-2.39324 -11.3835,-4.79439 z m 46.8897,-1.33446 c 1.0864,-3.60666 4.3314,-6.55764 7.2115,-6.55764 2.88,0 6.1251,2.95098 7.2115,6.55764 1.0863,3.60667 -2.1588,6.55764 -7.2115,6.55764 -5.0527,0 -8.2978,-2.95097 -7.2115,-6.55764 z m 18.8728,-9.05426 c -4.4027,-12.69725 -2.514,-15.7275 6.1212,-9.82097 3.7258,2.54843 4.5624,7.76527 1.9855,12.38014 -3.4572,6.19068 -5.2714,5.61796 -8.1067,-2.55917 z m -245.91947,-8.78861 c -4.96802,-3.5531 -5.64772,-5.95056 -1.70339,-6.00658 3.61053,-0.051 8.09768,2.65149 9.97124,6.00658 4.22942,7.57361 2.32132,7.57361 -8.26785,0 z m 96.23247,-6.50601 c -1.9983,-3.57831 -2.4511,-7.81424 -1.0063,-9.4133 1.445,-1.59907 4.0958,1.32883 5.8909,6.50602 3.7272,10.74917 0.5505,12.6398 -4.8846,2.90728 z m 88.418,-11.79438 c 1.8737,-3.35509 4.5004,-6.10012 5.8373,-6.10012 1.3368,0 2.4307,2.74503 2.4307,6.10012 0,3.35492 -2.6268,6.10014 -5.8373,6.10014 -3.2105,0 -4.3043,-2.74522 -2.4307,-6.10014 z m 41.3397,-12.20043 c -4.5473,-3.25221 -5.7875,-5.91322 -2.7559,-5.91322 3.0314,0 9.2325,2.66101 13.7799,5.91322 4.5473,3.25257 5.7875,5.91339 2.7559,5.91339 -3.0316,0 -9.2325,-2.66082 -13.7799,-5.91339 z m -111.709,-6.85695 c 3.739,-4.16898 8.1867,-6.04322 9.8837,-4.16511 1.697,1.87812 -1.3621,5.28906 -6.7981,7.57993 -7.8558,3.31053 -8.4888,2.60974 -3.0856,-3.41482 z m 84.5843,-21.1009102 c 0.2645,-7.10639 1.5706,-8.55184 3.3304,-3.68559 1.5921,4.40347 1.3963,9.66505 -0.4354,11.6920302 -1.8315,2.02697 -3.1343,-1.57582 -2.895,-8.0064402 z"
       sodipodi:nodetypes="ssscsccssscsccscscccsccccscscsscccsccccscccccccscccccsccsccssccccccccccccccccccccsccccccscccccccccsccccccccscccccsscccccssscscsccscsccccccscsccsscccccscsccccscsssscscccccscsccsscsssscccsscsscsssccsccccsccsscccssscssssssscscccssssssscccccccccccscsssccssccsccscssscscccccccssscccscccssssccscssssscsssscsssccscssscssssssccscsccscsssscsscssccscsccssscsscsssscsssscsscccccccsccccccccccsccsccsssssssccssssccsscsssscsssssssscsssscsscsscscscsssssscsscccccsscsscsscsscsccscsscsscscccssscscsccsscsscccsssssccscsscscscsssscsscsscccccccscssssccsssssssscssscsccccccccccsccsscccscsccsccccccsccsssssscscscsscssccs" /></g></svg>
